<svg width="24" height="24" viewBox="0 0 24 24" fill="none" xmlns="http://www.w3.org/2000/svg">
<path d="M12 1.99982C6.486 1.99982 2 6.48482 2 11.9998C2 17.5148 6.486 21.9998 12 21.9998C17.514 21.9998 22 17.5148 22 11.9998C22 6.48482 17.514 1.99982 12 1.99982Z" fill="#C11030"/>
<path fill-rule="evenodd" clip-rule="evenodd" d="M13.4031 12L16.2094 14.8063C16.5969 15.1937 16.5969 15.8219 16.2094 16.2094C15.8219 16.5969 15.1937 16.5969 14.8063 16.2094L12 13.4031L9.19373 16.2094C8.80627 16.5969 8.17806 16.5969 7.7906 16.2094C7.40313 15.8219 7.40313 15.1937 7.7906 14.8063L10.5969 12L7.7906 9.19373C7.40313 8.80627 7.40313 8.17806 7.7906 7.7906C8.17806 7.40313 8.80627 7.40313 9.19373 7.7906L12 10.5969L14.8063 7.7906C15.1937 7.40313 15.8219 7.40313 16.2094 7.7906C16.5969 8.17806 16.5969 8.80627 16.2094 9.19373L13.4031 12Z" fill="white"/>
</svg>
